{
  "source": "C:\\Users\\Peter\\Desktop\\stuff\\MIUN\\quantitative_research\\video_compression\\videos\\BVI-HD\\TreeGrassFamily_1920x1080_30fps.mp4",
  "output": "C:\\Users\\Peter\\Desktop\\stuff\\MIUN\\quantitative_research\\video_compression\\compressed_videos\\BVI-HD\\av1\\12\\TreeGrassFamily_1920x1080_30fps_av1.mkv",
  "codec": "av1",
  "ok": "Input #0, mov,mp4,m4a,3gp,3g2,mj2, from 'C:\\Users\\Peter\\Desktop\\stuff\\MIUN\\quantitative_research\\video_compression\\videos\\BVI-HD\\TreeGrassFamily_1920x1080_30fps.mp4':\n  Metadata:\n    major_brand     : isom\n    minor_version   : 512\n    compatible_brands: isomiso2avc1mp41\n    encoder         : Lavf54.28.101\n  Duration: 00:00:05.00, start: 0.000000, bitrate: 331787 kb/s\n  Stream #0:0[0x1](und): Video: h264 (High 4:4:4 Predictive) (avc1 / 0x31637661), yuv420p(progressive), 1920x1080, 331784 kb/s, 30 fps, 30 tbr, 30 tbn (default)\n    Metadata:\n      handler_name    : VideoHandler\n      vendor_id       : [0][0][0][0]\n[out#0/matroska @ 000001fa9f2793c0] Codec AVOption b:a (set bitrate (in bits/s)) has not been used for any stream. The most likely reason is either wrong type (e.g. a video option with no video streams) or that it is a private option of some decoder which was not actually used for any stream.\nStream mapping:\n  Stream #0:0 -> #0:0 (h264 (native) -> av1 (libsvtav1))\nPress [q] to stop, [?] for help\nSvt[info]: -------------------------------------------\nSvt[info]: SVT [version]:\tSVT-AV1 Encoder Lib v3.1.0-19-g6ecfe8ec\nSvt[info]: SVT [build]  :\tGCC 15.2.0\t 64 bit\nSvt[info]: LIB Build date: Aug 17 2025 11:37:13\nSvt[info]: -------------------------------------------\nSvt[info]: Level of Parallelism: 5\nSvt[info]: Number of PPCS 93\nSvt[info]: [asm level on system : up to avx2]\nSvt[info]: [asm level selected : up to avx2]\nSvt[info]: -------------------------------------------\nSvt[info]: SVT [config]: main profile\ttier (auto)\tlevel (auto)\nSvt[info]: SVT [config]: width / height / fps numerator / fps denominator \t\t: 1920 / 1080 / 30 / 1\nSvt[info]: SVT [config]: bit-depth / color format \t\t\t\t\t: 8 / YUV420\nSvt[info]: SVT [config]: preset / tune / pred struct \t\t\t\t\t: 4 / PSNR / random access\nSvt[info]: SVT [config]: gop size / mini-gop size / key-frame type \t\t\t: 161 / 16 / key frame\nSvt[info]: SVT [config]: BRC mode / target bitrate (kbps)\t\t\t\t: VBR / 12000 \nSvt[info]: SVT [config]: AQ mode / Variance Boost \t\t\t\t\t: 2 / 0\nSvt[info]: SVT [config]: sharpness / luminance-based QP bias \t\t\t\t: 0 / 0\nSvt[info]: SVT [config]: QP scale compress strength \t\t\t\t\t: 0\nSvt[info]: -------------------------------------------\nOutput #0, matroska, to 'C:\\Users\\Peter\\Desktop\\stuff\\MIUN\\quantitative_research\\video_compression\\compressed_videos\\BVI-HD\\av1\\12\\TreeGrassFamily_1920x1080_30fps_av1.mkv':\n  Metadata:\n    major_brand     : isom\n    minor_version   : 512\n    compatible_brands: isomiso2avc1mp41\n    encoder         : Lavf62.3.100\n  Stream #0:0(und): Video: av1 (AV01 / 0x31305641), yuv420p(tv, progressive), 1920x1080, q=2-31, 12000 kb/s, 30 fps, 1k tbn (default)\n    Metadata:\n      encoder         : Lavc62.11.100 libsvtav1\n      handler_name    : VideoHandler\n      vendor_id       : [0][0][0][0]\n    Side data:\n      cpb: bitrate max/min/avg: 0/0/12000000 buffer size: 12000000 vbv_delay: N/A\nframe=    0 fps=0.0 q=0.0 size=       0KiB time=N/A bitrate=N/A speed=N/A elapsed=0:00:01.02    \nframe=    0 fps=0.0 q=0.0 size=       0KiB time=N/A bitrate=N/A speed=N/A elapsed=0:00:01.61    \nframe=    0 fps=0.0 q=0.0 size=       0KiB time=N/A bitrate=N/A speed=N/A elapsed=0:00:02.16    \nframe=    0 fps=0.0 q=0.0 size=       0KiB time=N/A bitrate=N/A speed=N/A elapsed=0:00:02.69    \nframe=    0 fps=0.0 q=0.0 size=       0KiB time=N/A bitrate=N/A speed=N/A elapsed=0:00:03.26    \nframe=    1 fps=0.3 q=11.0 size=       1KiB time=00:00:00.00 bitrate=N/A speed=   0x elapsed=0:00:03.76    \nframe=    1 fps=0.2 q=11.0 size=       1KiB time=00:00:00.00 bitrate=N/A speed=   0x elapsed=0:00:04.29    \nframe=    4 fps=0.8 q=28.0 size=       1KiB time=00:00:00.10 bitrate=  57.0kbits/s speed=0.0206x elapsed=0:00:04.84    \nframe=    8 fps=1.5 q=28.0 size=       1KiB time=00:00:00.23 bitrate=  24.4kbits/s speed=0.0434x elapsed=0:00:05.37    \nframe=   11 fps=1.9 q=26.0 size=       1KiB time=00:00:00.33 bitrate=  17.1kbits/s speed=0.0563x elapsed=0:00:05.92    \nframe=   17 fps=2.6 q=18.0 size=       1KiB time=00:00:00.53 bitrate=  10.7kbits/s speed=0.0828x elapsed=0:00:06.44    \nframe=   21 fps=3.0 q=26.0 size=       1KiB time=00:00:00.66 bitrate=   8.6kbits/s speed=0.0957x elapsed=0:00:06.96    \nframe=   23 fps=3.1 q=27.0 size=       1KiB time=00:00:00.73 bitrate=   7.8kbits/s speed=0.098x elapsed=0:00:07.48    \nframe=   27 fps=3.4 q=26.0 size=       1KiB time=00:00:00.86 bitrate=   6.6kbits/s speed=0.108x elapsed=0:00:08.00    \nframe=   34 fps=4.0 q=35.0 size=       1KiB time=00:00:01.10 bitrate=   5.2kbits/s speed=0.129x elapsed=0:00:08.52    \nframe=   38 fps=4.2 q=35.0 size=       1KiB time=00:00:01.23 bitrate=   4.6kbits/s speed=0.137x elapsed=0:00:09.03    \nframe=   43 fps=4.5 q=32.0 size=       1KiB time=00:00:01.40 bitrate=   4.1kbits/s speed=0.147x elapsed=0:00:09.55    \nframe=   49 fps=4.8 q=17.0 size=       1KiB time=00:00:01.60 bitrate=   3.6kbits/s speed=0.158x elapsed=0:00:10.11    \nframe=   55 fps=5.2 q=35.0 size=       1KiB time=00:00:01.80 bitrate=   3.2kbits/s speed=0.169x elapsed=0:00:10.63    \nframe=   57 fps=5.1 q=30.0 size=       1KiB time=00:00:01.86 bitrate=   3.1kbits/s speed=0.167x elapsed=0:00:11.14    \nframe=   61 fps=5.2 q=32.0 size=       1KiB time=00:00:02.00 bitrate=   2.9kbits/s speed=0.171x elapsed=0:00:11.68    \nframe=   69 fps=5.7 q=34.0 size=       1KiB time=00:00:02.26 bitrate=   2.5kbits/s speed=0.186x elapsed=0:00:12.20    \nframe=   73 fps=5.7 q=32.0 size=    5120KiB time=00:00:02.40 bitrate=17476.3kbits/s speed=0.189x elapsed=0:00:12.71    \nframe=   77 fps=5.8 q=32.0 size=    5120KiB time=00:00:02.53 bitrate=16556.5kbits/s speed=0.191x elapsed=0:00:13.23    \nframe=   81 fps=5.9 q=27.0 size=    5120KiB time=00:00:02.66 bitrate=15728.6kbits/s speed=0.193x elapsed=0:00:13.78    \nframe=   89 fps=6.2 q=32.0 size=    5120KiB time=00:00:02.93 bitrate=14298.8kbits/s speed=0.205x elapsed=0:00:14.30    \nframe=   93 fps=6.3 q=32.0 size=    5120KiB time=00:00:03.06 bitrate=13677.1kbits/s speed=0.207x elapsed=0:00:14.82    \nframe=   97 fps=6.3 q=27.0 size=    5120KiB time=00:00:03.20 bitrate=13107.2kbits/s speed=0.208x elapsed=0:00:15.35    \nframe=  105 fps=6.6 q=32.0 size=    5120KiB time=00:00:03.46 bitrate=12099.0kbits/s speed=0.218x elapsed=0:00:15.88    \nframe=  109 fps=6.6 q=32.0 size=    5120KiB time=00:00:03.60 bitrate=11650.8kbits/s speed=0.219x elapsed=0:00:16.41    \nframe=  113 fps=6.7 q=27.0 size=    5120KiB time=00:00:03.73 bitrate=11234.7kbits/s speed=0.22x elapsed=0:00:16.94    \nframe=  119 fps=6.8 q=35.0 size=    5120KiB time=00:00:03.93 bitrate=10663.5kbits/s speed=0.225x elapsed=0:00:17.46    \nframe=  123 fps=6.8 q=37.0 size=    5120KiB time=00:00:04.06 bitrate=10313.9kbits/s speed=0.226x elapsed=0:00:17.99    \nframe=  129 fps=7.0 q=28.0 size=    5120KiB time=00:00:04.26 bitrate=9830.4kbits/s speed=0.23x elapsed=0:00:18.53    \nframe=  135 fps=7.1 q=38.0 size=    5120KiB time=00:00:04.46 bitrate=9390.2kbits/s speed=0.234x elapsed=0:00:19.06    \nframe=  137 fps=7.0 q=35.0 size=    5120KiB time=00:00:04.53 bitrate=9252.1kbits/s speed=0.231x elapsed=0:00:19.58    \n[out#0/matroska @ 000001fa9f2793c0] video:8509KiB audio:0KiB subtitle:0KiB other streams:0KiB global headers:0KiB muxing overhead: 0.017536%\nframe=  150 fps=7.5 q=38.0 Lsize=    8511KiB time=00:00:04.96 bitrate=14037.6kbits/s speed=0.248x elapsed=0:00:20.03    \n",
  "seconds": 20.629650592803955,
  "probe_out": {}
}